<svg xmlns="http://www.w3.org/2000/svg" version="1.1" xmlns:xlink="http://www.w3.org/1999/xlink" width="512" height="512" x="0" y="0" viewBox="0 0 96 96" style="enable-background:new 0 0 512 512" xml:space="preserve" class=""><g><path d="M86.89 91.18c.03-6.79-.85-18.88-5.05-23.39-7.26-7.7-22.47-7.87-23.43-7.87-.52-.25-1.7-3.05-1.73-8.63 3.38-2.69 6.06-6.85 7.26-11.71 3.04-.76 5.56-7.44 1.68-8.94 4.49-12.35 4.49-22.77-7.65-24.57-4.29-.64-6.62-2.48-11.92-1.98-6.86.72-11.9 2.86-12.55 8.33-7.62.48-7.79 13.77-3.58 18.47-2.92 1.77-.78 7.95 2.25 8.7 1.18 4.81 3.82 8.93 7.14 11.63-.02 5.62-1.2 8.45-1.73 8.72-1.26 0-16.21.26-23.39 7.87-4.21 4.46-5 16.44-5.09 23.19 0 .43.27.82.66.94.12.22 75.94-.01 76.16.07.46-.03.91-.34.96-.82zm-57.67-70.1c.42-6.03 3.23-6.73 5.31-6.73.61.01 1.11-.59.98-1.19-.26-4.4 4.88-6.59 10.73-7.09 4.39-.53 7.48 1.42 11.5 1.98 10.13 1.41 9.98 9.95 6.58 20.31-1.05-3.27-3.01-7.77-5.78-7.89-.99-.04-1.98.07-3.03.19-2.7.3-6.06.68-11.36-1.38-6.05-2.28-12.39 3.63-13.06 9.85-1.5-2.15-2.1-4.76-1.87-8.05zm4.77 17.44a.988.988 0 0 0-.87-.78c-1.92-.12-3.17-3.98-2.28-5.05.06-.07.23-.27.86-.12.11.02.23.04.34 0 .81-.05.95-.85.92-1.52-.11-5.67 4.91-11.78 10.47-9.92 5.76 2.24 9.39 1.83 12.31 1.5 1.02-.11 1.9-.21 2.72-.18 1.6.07 3.71 4.88 4.75 9.32.09.44.48.75.91.81.11 0 .21 0 .32-.03.61-.15.79.05.85.11.88 1.07-.35 4.93-2.27 5.05-.43.04-.78.36-.87.78-1.71 7.87-7.9 14.03-14.07 14.03s-12.37-6.16-14.07-14.03zm5.11 22.73c1.43-1.44 2.05-5.17 2.19-8.69 4.19 2.59 9.2 2.63 13.41.07.18 3.59.72 7.27 2.31 8.72-3.45 6-14.61 5.95-18.01-.02.03-.03.06-.05.1-.08zm-23.44 7.92c5.96-6.32 18.46-7.13 21.39-7.23 4.02 7.87 17.95 7.84 21.94 0 2.93.1 15.42.9 21.39 7.23 2.61 2.76 4.28 10.51 4.52 20.83H11.13c.24-10.32 1.91-18.07 4.52-20.83z" fill="#ffffff" opacity="1" data-original="#000000" class=""></path></g></svg>